<svg width="18" height="19" viewBox="0 0 18 19" fill="none" xmlns="http://www.w3.org/2000/svg">
<g clip-path="url(#clip0_7414_1884)">
<path d="M4.64977 16.5498H1.38446V6.03443H4.64977V16.5498ZM3.01515 4.60005C1.97115 4.60005 1.12402 3.73493 1.12402 2.69093C1.12402 2.18937 1.32327 1.70836 1.67792 1.3537C2.03258 0.999048 2.51359 0.799805 3.01515 0.799805C3.51671 0.799805 3.99772 0.999048 4.35238 1.3537C4.70703 1.70836 4.90627 2.18937 4.90627 2.69093C4.90627 3.73493 4.05915 4.60005 3.01515 4.60005ZM16.8706 16.5498H13.6126V11.4311C13.6126 10.211 13.5879 8.64668 11.915 8.64668C10.2174 8.64668 9.95696 9.97193 9.95696 11.3433V16.5498H6.69502V6.03443H9.82646V7.4688H9.87202C10.308 6.64249 11.3728 5.77062 12.9613 5.77062C16.266 5.77062 16.8735 7.94693 16.8735 10.7735V16.5498H16.8706Z" fill="#AE97E8"/>
</g>
<defs>
<clipPath id="clip0_7414_1884">
<rect width="18" height="18" fill="white" transform="translate(-0.000976562 0.799805)"/>
</clipPath>
</defs>
</svg>
