<svg width="360" height="243" viewBox="0 0 360 243" fill="none" xmlns="http://www.w3.org/2000/svg">
<g filter="url(#filter0_b_2712_4837)">
<path fill-rule="evenodd" clip-rule="evenodd" d="M209 0.00097547C195.193 0.00097547 184 11.1939 184 25.001L184 79.001C184 81.2101 182.209 83.001 180 83.001C177.791 83.001 176 81.2101 176 79.001L176 25.001C176 11.1939 164.807 0.00097547 151 0.00097547L25 0.00097547C11.1929 0.00097547 -4.89329e-07 11.1939 -1.09295e-06 25.001L-9.53051e-06 218.001C-1.01341e-05 231.808 11.1929 243.001 25 243.001L65.8523 243.001C67.4579 243.001 68.6954 241.6 68.6657 239.995V239.995C68.2981 220.116 86.879 204.001 110.167 204.001C133.456 204.001 151.298 220.116 151.666 239.995V239.995C151.695 241.604 152.983 242.975 154.577 242.747C163.526 241.465 170.946 235.443 174.211 227.307C175.186 224.877 177.382 223.001 180 223.001C182.618 223.001 184.814 224.877 185.789 227.307C189.481 236.505 198.482 243.001 209 243.001L335 243.001C348.807 243.001 360 231.808 360 218.001L360 25.001C360 11.1939 348.807 0.000976073 335 0.00097547L209 0.00097547Z" fill="#CBB6FF"/>
</g>
<defs>
<filter id="filter0_b_2712_4837" x="-100" y="-99.999" width="560" height="443" filterUnits="userSpaceOnUse" color-interpolation-filters="sRGB">
<feFlood flood-opacity="0" result="BackgroundImageFix"/>
<feGaussianBlur in="BackgroundImageFix" stdDeviation="50"/>
<feComposite in2="SourceAlpha" operator="in" result="effect1_backgroundBlur_2712_4837"/>
<feBlend mode="normal" in="SourceGraphic" in2="effect1_backgroundBlur_2712_4837" result="shape"/>
</filter>
</defs>
</svg>
