<svg xmlns="http://www.w3.org/2000/svg" width="580" height="343" fill="none">
  <g filter="url(#a)">
    <path fill="#CBB6FF" fill-rule="evenodd"
      d="M337 .767c-22.091 0-40 17.908-40 40v36a7 7 0 1 1-14 0v-36c0-22.092-17.909-40-40-40H40c-22.091 0-40 17.908-40 40v262c0 22.091 17.909 40 40 40h63.183c6.906 0 12.638-5.099 14.792-11.66 8.884-27.056 32.916-46.34 61.525-46.34 28.465 0 53.106 19.091 63.09 45.932 2.472 6.648 8.843 11.82 15.417 9.157C272.663 333.92 283 319.551 283 302.767v-36a7 7 0 1 1 14 0v36c0 22.091 17.909 40 40 40h203c22.091 0 40-17.909 40-40v-262c0-22.092-17.909-40-40-40H337Z"
      clip-rule="evenodd" />
  </g>
  <defs>
    <filter id="a" width="780" height="542" x="-100" y="-99.233" color-interpolation-filters="sRGB"
      filterUnits="userSpaceOnUse">
      <feFlood flood-opacity="0" result="BackgroundImageFix" />
      <feGaussianBlur in="BackgroundImageFix" stdDeviation="50" />
      <feComposite in2="SourceAlpha" operator="in" result="effect1_backgroundBlur_2460_1478" />
      <feBlend in="SourceGraphic" in2="effect1_backgroundBlur_2460_1478" result="shape" />
    </filter>
  </defs>
</svg>