<svg width="16" height="13" viewBox="0 0 16 13" fill="none" xmlns="http://www.w3.org/2000/svg">
<path d="M16.001 2.22322C15.4126 2.46376 14.7805 2.62629 14.116 2.69975C14.8016 2.32125 15.3146 1.72555 15.5592 1.02378C14.915 1.37678 14.21 1.62525 13.4748 1.7584C12.9804 1.27138 12.3255 0.948578 11.6119 0.840106C10.8982 0.731635 10.1658 0.843563 9.52814 1.15851C8.89052 1.47347 8.38345 1.97382 8.08564 2.58189C7.78784 3.18996 7.71597 3.87173 7.88118 4.52135C6.57593 4.46089 5.29905 4.14789 4.1334 3.60269C2.96775 3.05748 1.93938 2.29224 1.11504 1.35663C0.833179 1.80521 0.671108 2.32529 0.671108 2.87918C0.670793 3.37781 0.803889 3.8688 1.05859 4.30859C1.31328 4.74838 1.6817 5.12337 2.13116 5.40029C1.60991 5.38499 1.10016 5.25505 0.644331 5.02128V5.06029C0.644278 5.75963 0.906487 6.43746 1.38647 6.97875C1.86645 7.52004 2.53463 7.89145 3.27764 8.02997C2.79409 8.15071 2.28713 8.16849 1.79504 8.08198C2.00467 8.68373 2.41302 9.20993 2.96292 9.58693C3.51282 9.96392 4.17673 10.1728 4.86172 10.1844C3.69891 11.0266 2.26285 11.4834 0.784558 11.4814C0.522693 11.4815 0.26105 11.4673 0.000976562 11.4391C1.50153 12.3292 3.24829 12.8016 5.03225 12.7998C11.0712 12.7998 14.3725 8.18535 14.3725 4.18329C14.3725 4.05327 14.369 3.92195 14.3626 3.79193C15.0048 3.36349 15.5591 2.83296 15.9996 2.22517L16.001 2.22322Z" fill="#AE97E8"/>
</svg>
