<svg width="26" height="24" viewBox="0 0 26 24" fill="none" xmlns="http://www.w3.org/2000/svg">
<path d="M23.1494 2.85655L22.441 3.56236L22.4413 3.56269L23.1494 2.85655ZM18.6831 1V2V1ZM14.2167 2.85655L14.925 3.56253L14.9251 3.56236L14.2167 2.85655ZM12.9997 4.07749L12.2915 4.78347L12.9997 5.49397L13.7079 4.78347L12.9997 4.07749ZM11.7826 2.85655L11.0744 3.56253L11.0744 3.56253L11.7826 2.85655ZM2.85001 11.8178L3.55825 11.1118H3.55825L2.85001 11.8178ZM4.06705 13.0387L3.35882 13.7447H3.35882L4.06705 13.0387ZM12.9997 22L12.2915 22.706L12.9997 23.4165L13.7079 22.706L12.9997 22ZM21.9323 13.0387L22.6406 13.7447L21.9323 13.0387ZM23.1494 11.8178L22.4413 11.1117L22.4411 11.1118L23.1494 11.8178ZM23.8578 2.15074C23.1786 1.4691 22.3721 0.928207 21.4842 0.559113L20.7165 2.40591C21.3612 2.67393 21.9473 3.06684 22.441 3.56236L23.8578 2.15074ZM21.4842 0.559113C20.5962 0.190016 19.6444 0 18.6831 0V2C19.3808 2 20.0717 2.1379 20.7165 2.40591L21.4842 0.559113ZM18.6831 0C17.7217 0 16.7699 0.190016 15.8819 0.559113L16.6496 2.40591C17.2944 2.1379 17.9853 2 18.6831 2V0ZM15.8819 0.559113C14.994 0.928207 14.1875 1.4691 13.5083 2.15074L14.9251 3.56236C15.4188 3.06684 16.0049 2.67393 16.6496 2.40591L15.8819 0.559113ZM13.5085 2.15058L12.2915 3.37152L13.7079 4.78347L14.925 3.56253L13.5085 2.15058ZM13.7079 3.37152L12.4909 2.15058L11.0744 3.56253L12.2915 4.78347L13.7079 3.37152ZM12.4909 2.15058C11.1191 0.774353 9.25778 0.000615954 7.31633 0.000615954V2.00062C8.72527 2.00062 10.0772 2.56208 11.0744 3.56253L12.4909 2.15058ZM7.31633 0.000615954C5.37488 0.000615954 3.5136 0.774353 2.14177 2.15058L3.55825 3.56253C4.5555 2.56208 5.90739 2.00062 7.31633 2.00062V0.000615954ZM2.14177 2.15058C0.770051 3.52669 0 5.39243 0 7.33718H2C2 5.9208 2.56089 4.56308 3.55825 3.56253L2.14177 2.15058ZM0 7.33718C0 9.28193 0.770051 11.1477 2.14177 12.5238L3.55825 11.1118C2.56089 10.1113 2 8.75355 2 7.33718H0ZM2.14177 12.5238L3.35882 13.7447L4.77529 12.3328L3.55825 11.1118L2.14177 12.5238ZM3.35882 13.7447L12.2915 22.706L13.7079 21.294L4.77529 12.3328L3.35882 13.7447ZM13.7079 22.706L22.6406 13.7447L21.2241 12.3328L12.2915 21.294L13.7079 22.706ZM22.6406 13.7447L23.8576 12.5238L22.4411 11.1118L21.2241 12.3328L22.6406 13.7447ZM23.8574 12.5239C24.5369 11.8426 25.0757 11.0339 25.4433 10.1439L23.5948 9.38045C23.3273 10.0281 22.9352 10.6164 22.4413 11.1117L23.8574 12.5239ZM25.4433 10.1439C25.8109 9.25402 26 8.30028 26 7.33718H24C24 8.03844 23.8623 8.73276 23.5948 9.38045L25.4433 10.1439ZM26 7.33718C26 6.37407 25.8109 5.42033 25.4433 4.53042L23.5948 5.29391C23.8623 5.94159 24 6.63591 24 7.33718H26ZM25.4433 4.53042C25.0757 3.64049 24.5369 2.83173 23.8574 2.15041L22.4413 3.56269C22.9352 4.05799 23.3273 4.64624 23.5948 5.29391L25.4433 4.53042Z" fill="#D9FF5A"/>
</svg>
