<svg width="95" height="199" viewBox="0 0 95 199" fill="none" xmlns="http://www.w3.org/2000/svg">
<path d="M87.6027 187.638L88.8383 188.603L83.913 194.908L82.5261 193.824L85.8063 189.625L79.311 191.312L78.0754 190.347L83.0007 184.043L84.3876 185.126L81.1074 189.325L87.6027 187.638Z" fill="white"/>
<path d="M77.7198 179.143C78.3517 179.733 78.7637 180.401 78.9559 181.149C79.1408 181.905 79.0153 182.634 78.5794 183.336L77.2571 182.103C77.5511 181.444 77.3743 180.812 76.7268 180.208C76.3607 179.881 76.0149 179.705 75.6895 179.678C75.3562 179.645 75.0768 179.749 74.8513 179.991C74.6185 180.24 74.53 180.515 74.5858 180.815C74.6343 181.123 74.8223 181.429 75.15 181.735L75.8404 182.379L74.9565 183.327L74.2895 182.705C74.0165 182.45 73.7474 182.308 73.4822 182.28C73.2098 182.259 72.9645 182.366 72.7463 182.6C72.5353 182.826 72.4574 183.082 72.5126 183.367C72.5606 183.659 72.7328 183.944 73.0292 184.22C73.6143 184.766 74.2029 184.87 74.7948 184.532L76.082 185.733C75.4194 186.208 74.7312 186.383 74.0174 186.257C73.2957 186.124 72.6385 185.781 72.0456 185.228C71.3513 184.581 70.9697 183.919 70.9008 183.242C70.8246 182.573 71.0011 182.008 71.4303 181.548C71.9395 181.002 72.5321 180.789 73.2079 180.908C72.8993 180.066 73.0432 179.326 73.6397 178.686C74.0908 178.202 74.6981 177.981 75.4618 178.022C76.2104 178.064 76.9631 178.438 77.7198 179.143Z" fill="white"/>
<path d="M73.0893 174.508L67.3346 180.065L63.689 176.29L64.8169 175.2L67.2399 177.71L71.8667 173.242L73.0893 174.508Z" fill="white"/>
<path d="M62.4144 164.598C63.543 164.676 64.4957 165.163 65.2725 166.056C66.0493 166.95 66.4017 167.965 66.3298 169.102C66.2428 170.237 65.7606 171.186 64.8831 171.949C64.0056 172.712 63.0026 173.054 61.874 172.975C60.7303 172.895 59.7701 172.408 58.9933 171.515C58.2165 170.621 57.8716 169.607 57.9586 168.471C58.0305 167.334 58.5052 166.385 59.3827 165.622C60.2602 164.859 61.2708 164.518 62.4144 164.598ZM64.0408 167.127C63.5859 166.604 63.0304 166.33 62.3742 166.307C61.703 166.283 61.0977 166.505 60.5584 166.974C60.019 167.443 59.7186 168.008 59.6573 168.669C59.5809 169.329 59.7701 169.921 60.225 170.444C60.6869 170.975 61.2534 171.253 61.9246 171.277C62.5808 171.301 63.1786 171.078 63.7179 170.609C64.2573 170.14 64.5652 169.576 64.6416 168.916C64.7029 168.254 64.5027 167.658 64.0408 167.127Z" fill="white"/>
<path d="M60.0221 160.123L54.9536 164.083L56.4312 165.974L55.1956 166.939L51.0879 161.682L52.3235 160.716L53.87 162.696L58.9385 158.736L60.0221 160.123Z" fill="white"/>
<path d="M50.6976 148.918C51.8118 149.114 52.7085 149.698 53.3876 150.667C54.0667 151.637 54.3111 152.684 54.1208 153.807C53.9156 154.927 53.3368 155.821 52.3844 156.487C51.432 157.154 50.3987 157.389 49.2845 157.193C48.1554 156.994 47.2514 156.409 46.5722 155.44C45.8931 154.47 45.6562 153.425 45.8614 152.304C46.0517 151.181 46.6231 150.287 47.5755 149.62C48.5279 148.953 49.5686 148.719 50.6976 148.918ZM52.0507 151.604C51.6531 151.036 51.1291 150.706 50.479 150.614C49.814 150.52 49.1888 150.678 48.6033 151.088C48.0179 151.497 47.6601 152.028 47.53 152.679C47.3851 153.327 47.5114 153.936 47.9091 154.504C48.3129 155.08 48.8473 155.416 49.5123 155.51C50.1625 155.602 50.7803 155.443 51.3657 155.033C51.9511 154.623 52.3163 154.094 52.4613 153.445C52.5914 152.794 52.4545 152.18 52.0507 151.604Z" fill="white"/>
<path d="M49.8181 145.32L42.9607 149.44L41.0819 146.314C40.6094 145.527 40.4342 144.811 40.5564 144.165C40.6786 143.52 41.0185 143.029 41.5762 142.694C42.0608 142.403 42.5895 142.34 43.1621 142.506C43.1177 141.625 43.4566 140.967 44.1789 140.533C44.7549 140.187 45.3631 140.101 46.0035 140.276C46.6347 140.457 47.2003 140.963 47.7002 141.796L49.8181 145.32ZM47.6361 144.578L46.433 142.576C46.2517 142.274 46.0357 142.08 45.7851 141.994C45.5197 141.905 45.2545 141.94 44.9894 142.099C44.7151 142.264 44.5597 142.482 44.5233 142.752C44.4722 143.02 44.5374 143.304 44.7187 143.606L45.9218 145.608L47.6361 144.578ZM44.8246 146.267L43.8193 144.594C43.6709 144.347 43.4879 144.177 43.2701 144.084C43.0378 143.987 42.7844 144.021 42.5101 144.186C41.9981 144.494 41.9179 144.94 42.2695 145.525L43.2749 147.198L44.8246 146.267Z" fill="white"/>
<path d="M44.2686 135.731C44.4539 136.079 44.5703 136.344 44.6177 136.524L43.2756 137.237C43.1843 137.02 43.1111 136.86 43.056 136.756C42.9008 136.464 42.6914 136.298 42.4279 136.256C42.155 136.22 41.7737 136.333 41.284 136.593L36.7916 138.982L33.7344 133.232L40.7979 129.476L41.6242 131.03L35.9451 134.05L37.3497 136.691L40.6979 134.911C41.4984 134.486 42.2136 134.365 42.8433 134.55C43.468 134.725 43.9431 135.119 44.2686 135.731Z" fill="white"/>
<path d="M37.1187 124.006C37.6235 125.089 37.6854 126.143 37.3043 127.168C36.9135 128.198 36.1719 128.967 35.0795 129.477C33.9871 129.986 32.928 130.062 31.9022 129.705C30.8668 129.352 30.0898 128.62 29.5714 127.508C29.0485 126.387 29.0185 125.3 29.4815 124.249C29.9348 123.202 30.7886 122.433 32.0427 121.942L34.7339 127.713C35.2856 127.433 35.6553 127.001 35.843 126.42C36.0307 125.838 35.978 125.233 35.685 124.604C35.2703 123.715 34.6479 123.264 33.818 123.25L33.0403 121.583C33.8497 121.476 34.6281 121.631 35.3755 122.047C36.1229 122.464 36.7039 123.117 37.1187 124.006ZM30.9258 126.929C31.1692 127.451 31.5287 127.831 32.0042 128.068C32.4655 128.3 32.9916 128.343 33.5826 128.197L31.7095 124.181C31.2029 124.558 30.8929 124.991 30.7793 125.479C30.6561 125.972 30.7049 126.456 30.9258 126.929Z" fill="white"/>
<path d="M34.7545 116.782L27.337 119.779L26.6777 118.147L29.6151 116.96L28.1706 113.385L25.2333 114.572L24.5739 112.94L31.9914 109.943L32.6507 111.575L29.6244 112.798L31.0689 116.373L34.0952 115.15L34.7545 116.782Z" fill="white"/>
<path d="M29.5038 104.817L30.0143 106.3L22.4501 108.904L21.8771 107.24L26.9148 105.506L20.5488 103.382L20.0383 101.9L27.6024 99.2953L28.1754 100.959L23.1377 102.694L29.5038 104.817Z" fill="white"/>
<path d="M25.4257 91.3872C25.755 92.5356 25.6512 93.5862 25.1144 94.5391C24.5674 95.4949 23.7145 96.139 22.5559 96.4712C21.3972 96.8034 20.3393 96.7129 19.382 96.1995C18.4145 95.6891 17.7617 94.8443 17.4236 93.6651C17.0825 92.4757 17.2229 91.398 17.8447 90.4318C18.4562 89.4686 19.4197 88.8428 20.7352 88.5544L22.4904 94.6757C23.0792 94.4846 23.5118 94.1165 23.7882 93.5712C24.0646 93.0259 24.1073 92.42 23.9162 91.7535C23.6457 90.8102 23.1016 90.2671 22.2839 90.1243L21.7767 88.3556C22.5928 88.3768 23.3374 88.6515 24.0104 89.1798C24.6834 89.7081 25.1552 90.4439 25.4257 91.3872ZM18.8518 93.3055C19.0106 93.8592 19.3062 94.2904 19.7387 94.5992C20.1581 94.9006 20.671 95.0254 21.2775 94.9735L20.0559 90.7132C19.4965 91.0068 19.1225 91.3859 18.9339 91.8505C18.7351 92.3181 18.7077 92.8031 18.8518 93.3055Z" fill="white"/>
<path d="M22.5125 79.5553L14.6873 81.2186L14.3214 79.4971L17.4201 78.8384L16.6184 75.0667L13.5197 75.7253L13.1537 74.0038L20.9789 72.3405L21.3448 74.0621L18.1522 74.7407L18.9539 78.5124L22.1466 77.8338L22.5125 79.5553Z" fill="white"/>
<path d="M19.3233 64.8456C19.4935 65.9202 19.2367 66.8897 18.5528 67.754C17.8672 68.6077 16.9555 69.1247 15.8177 69.3049C14.6799 69.4851 13.6531 69.2752 12.7373 68.6751C11.8198 68.0644 11.2759 67.2218 11.1057 66.1472C11.0206 65.6099 11.0634 65.0955 11.2339 64.6041C11.394 64.1144 11.6233 63.7217 11.9221 63.426L10.8633 63.5937L10.588 61.8553L18.4895 60.6039L18.7648 62.3422L17.706 62.5099C18.0815 62.6988 18.4263 63.0006 18.7404 63.4152C19.0439 63.8315 19.2382 64.3083 19.3233 64.8456ZM17.2338 66.5859C17.6484 66.0667 17.8014 65.4647 17.6929 64.7799C17.5845 64.0951 17.2529 63.5698 16.6982 63.2041C16.1435 62.8384 15.5079 62.7122 14.7915 62.8257C14.0751 62.9392 13.5096 63.2555 13.0951 63.7748C12.6806 64.294 12.5275 64.896 12.636 65.5808C12.7444 66.2656 13.076 66.7909 13.6307 67.1566C14.1854 67.5223 14.821 67.6485 15.5374 67.535C16.2538 67.4215 16.8193 67.1052 17.2338 66.5859Z" fill="white"/>
<path d="M17.7721 48.0909C17.8474 48.9516 17.7062 49.7242 17.3485 50.4086C16.9802 51.094 16.3992 51.5517 15.6056 51.7817L15.448 49.9806C16.1076 49.6873 16.3988 49.0997 16.3217 48.2178C16.2683 47.7299 16.1295 47.3673 15.9053 47.1299C15.6801 46.8819 15.4029 46.7723 15.0734 46.8012C14.7334 46.8309 14.4838 46.9759 14.3245 47.2361C14.1546 47.4972 14.0892 47.8509 14.1282 48.2972L14.2105 49.2376L12.9194 49.3506L12.84 48.4421C12.8074 48.0702 12.7022 47.7849 12.5242 47.5863C12.3356 47.3887 12.0819 47.3038 11.7631 47.3317C11.4549 47.3587 11.2261 47.4965 11.0765 47.7451C10.9163 47.9947 10.8539 48.3214 10.8892 48.7252C10.9589 49.5221 11.3267 49.9932 11.9926 50.1384L12.146 51.8917C11.3351 51.802 10.7065 51.4715 10.2604 50.9002C9.8133 50.3183 9.55443 49.6236 9.48378 48.816C9.40104 47.8703 9.5605 47.1229 9.96217 46.5738C10.3532 46.0256 10.8622 45.7241 11.4891 45.6693C12.233 45.6042 12.8159 45.8423 13.2381 46.3835C13.5721 45.5513 14.1748 45.097 15.0462 45.0208C15.705 44.9631 16.3044 45.2051 16.8443 45.7468C17.3727 46.2788 17.6819 47.0601 17.7721 48.0909Z" fill="white"/>
<path d="M16.9101 36.9585C16.967 38.045 16.6103 38.9823 15.8398 39.7704C15.0688 40.5478 14.108 40.9667 12.9576 41.027C11.8072 41.0873 10.8079 40.7711 9.95987 40.0786C9.11123 39.3753 8.65844 38.4805 8.6015 37.394C8.57303 36.8507 8.66929 36.3437 8.89029 35.8728C9.10063 35.4025 9.36981 35.0359 9.69783 34.773L8.6273 34.8291L8.53519 33.0715L16.5242 32.6528L16.6163 34.4104L15.5458 34.4665C15.8995 34.6937 16.2109 35.0298 16.4799 35.475C16.7382 35.9208 16.8816 36.4153 16.9101 36.9585ZM14.6502 38.4709C15.1167 37.9978 15.3318 37.4151 15.2955 36.7227C15.2593 36.0303 14.9844 35.4733 14.471 35.0516C13.9575 34.6299 13.3386 34.438 12.6143 34.476C11.8899 34.5139 11.2945 34.7694 10.828 35.2425C10.3614 35.7156 10.1463 36.2983 10.1826 36.9907C10.2188 37.6831 10.4937 38.2401 11.0072 38.6618C11.5206 39.0835 12.1395 39.2754 12.8638 39.2374C13.5882 39.1995 14.1836 38.944 14.6502 38.4709Z" fill="white"/>
<path d="M15.999 23.5045L12.591 27.0565L15.999 27.0565L15.999 28.8165L7.99902 28.8165L7.99902 27.0565L11.423 27.0565L7.99902 23.9045L7.99902 21.7605L11.935 25.3925L15.999 21.1845L15.999 23.5045Z" fill="white"/>
<path d="M16.309 15.9287C16.271 17.016 15.8339 17.9187 14.9977 18.6366C14.1618 19.3438 13.1683 19.6774 12.017 19.6372C10.8657 19.597 9.89776 19.1949 9.11328 18.4311C8.32916 17.6566 7.95609 16.7257 7.99406 15.6383C8.01305 15.0947 8.15313 14.5979 8.41433 14.1481C8.66486 13.6979 8.96497 13.3561 9.31465 13.1229L8.24331 13.0855L8.30473 11.3265L16.2999 11.6057L16.2384 13.3647L15.1671 13.3272C15.4996 13.5843 15.7805 13.9464 16.0097 14.4133C16.2282 14.8799 16.328 15.385 16.309 15.9287ZM13.9258 17.2383C14.4318 16.8077 14.6969 16.246 14.7211 15.553C14.7453 14.8601 14.5201 14.2812 14.0453 13.8164C13.5706 13.3515 12.9708 13.1065 12.2459 13.0812C11.521 13.0558 10.9056 13.2585 10.3996 13.6891C9.89355 14.1197 9.62845 14.6814 9.60425 15.3744C9.58006 16.0673 9.80533 16.6461 10.2801 17.111C10.7548 17.5759 11.3546 17.8209 12.0795 17.8462C12.8044 17.8716 13.4198 17.6689 13.9258 17.2383Z" fill="white"/>
<path d="M16.4085 4.8366C16.3482 5.69849 16.0879 6.43947 15.6275 7.05953C15.1565 7.67885 14.5111 8.04004 13.6912 8.1431L13.8173 6.33951C14.5147 6.15303 14.8943 5.61821 14.956 4.73503C14.9796 4.24482 14.8993 3.86495 14.7149 3.59544C14.5314 3.31528 14.2747 3.16367 13.9448 3.14061C13.6043 3.1168 13.335 3.22094 13.137 3.45302C12.9284 3.68436 12.8084 4.02349 12.7772 4.4704L12.7113 5.4121L11.4185 5.32169L11.4821 4.41192C11.5082 4.03949 11.4488 3.74129 11.3041 3.51732C11.1487 3.2926 10.9114 3.16908 10.5922 3.14676C10.2836 3.12518 10.036 3.22548 9.8494 3.44767C9.65214 3.66912 9.53937 3.98202 9.5111 4.38636C9.45529 5.18441 9.74486 5.70722 10.3798 5.95478L10.257 7.71049C9.47014 7.49508 8.90105 7.07035 8.54976 6.4363C8.19921 5.79161 8.05221 5.06492 8.10876 4.25622C8.17498 3.3092 8.4494 2.59594 8.93203 2.11644C9.40401 1.63619 9.9539 1.41802 10.5817 1.46192C11.3266 1.51401 11.8651 1.84037 12.1973 2.44101C12.6575 1.67123 13.3238 1.31685 14.1964 1.37786C14.8561 1.42399 15.4102 1.75679 15.8588 2.37626C16.2974 2.98434 16.4807 3.80445 16.4085 4.8366Z" fill="white"/>
</svg>
