<svg width="29" height="29" viewBox="0 0 29 29" fill="none" xmlns="http://www.w3.org/2000/svg">
<path d="M26.1489 5.08394C24.169 4.87956 22.189 4.72628 20.1968 4.61131V4.59854L19.9262 2.93796C19.7417 1.76277 19.4712 0 16.5935 0H13.3715C10.5061 0 10.2355 1.68613 10.0388 2.92518L9.7805 4.56022C8.6368 4.63686 7.4931 4.7135 6.34941 4.82847L3.84065 5.08394C3.32414 5.13504 2.95521 5.60766 3.0044 6.13139C3.05359 6.65511 3.49631 7.03832 4.01282 6.98723L6.52158 6.73175C12.9656 6.06752 19.4589 6.32299 25.9767 7C26.0136 7 26.0382 7 26.0751 7C26.5424 7 26.9483 6.62956 26.9975 6.13139C27.0344 5.60766 26.6654 5.13504 26.1489 5.08394Z" fill="#D9FF5A"/>
<path d="M23.5935 9.46769C23.3082 9.16789 22.916 9 22.5119 9H7.48813C7.08401 9 6.67989 9.16789 6.40651 9.46769C6.13314 9.76749 5.97862 10.1752 6.0024 10.5949L6.73932 22.8987C6.87006 24.7215 7.03647 27 11.1846 27H18.8154C22.9635 27 23.1299 24.7335 23.2607 22.8987L23.9976 10.6069C24.0214 10.1752 23.8669 9.76749 23.5935 9.46769ZM16.9731 20.992H13.0151C12.5277 20.992 12.1236 20.5843 12.1236 20.0926C12.1236 19.6009 12.5277 19.1932 13.0151 19.1932H16.9731C17.4604 19.1932 17.8645 19.6009 17.8645 20.0926C17.8645 20.5843 17.4604 20.992 16.9731 20.992ZM17.9715 16.1952H12.0285C11.5412 16.1952 11.1371 15.7875 11.1371 15.2958C11.1371 14.8041 11.5412 14.3964 12.0285 14.3964H17.9715C18.4588 14.3964 18.8629 14.8041 18.8629 15.2958C18.8629 15.7875 18.4588 16.1952 17.9715 16.1952Z" fill="#D9FF5A"/>
</svg>
