<svg width="23" height="22" viewBox="0 0 23 22" fill="none" xmlns="http://www.w3.org/2000/svg">
<path d="M22.6777 17.963C22.6777 18.359 22.5896 18.766 22.4023 19.162C22.215 19.558 21.9727 19.932 21.6532 20.284C21.1134 20.878 20.5185 21.307 19.8465 21.582C19.1855 21.857 18.4694 22 17.6983 22C16.5746 22 15.3738 21.736 14.1069 21.197C12.84 20.658 11.5731 19.932 10.3172 19.019C9.05029 18.095 7.84949 17.072 6.70377 15.939C5.56907 14.795 4.54453 13.596 3.63016 12.342C2.72681 11.088 1.99972 9.834 1.47092 8.591C0.942131 7.337 0.677734 6.138 0.677734 4.994C0.677734 4.246 0.809933 3.531 1.07433 2.871C1.33873 2.2 1.75735 1.584 2.34123 1.034C3.04629 0.341 3.81744 0 4.63267 0C4.94113 0 5.24959 0.0660001 5.52501 0.198C5.81144 0.33 6.06482 0.528 6.26311 0.814L8.81895 4.411C9.01724 4.686 9.16046 4.939 9.25961 5.181C9.35876 5.412 9.41384 5.643 9.41384 5.852C9.41384 6.116 9.33672 6.38 9.18249 6.633C9.03928 6.886 8.82996 7.15 8.56557 7.414L7.72831 8.283C7.60713 8.404 7.55205 8.547 7.55205 8.723C7.55205 8.811 7.56306 8.888 7.5851 8.976C7.61815 9.064 7.6512 9.13 7.67323 9.196C7.87153 9.559 8.21304 10.032 8.69776 10.604C9.19351 11.176 9.7223 11.759 10.2952 12.342C10.8901 12.925 11.4629 13.464 12.0468 13.959C12.6196 14.443 13.0934 14.773 13.4679 14.971C13.523 14.993 13.5891 15.026 13.6662 15.059C13.7543 15.092 13.8425 15.103 13.9416 15.103C14.1289 15.103 14.2721 15.037 14.3933 14.916L15.2306 14.091C15.506 13.816 15.7704 13.607 16.0238 13.475C16.2771 13.321 16.5305 13.244 16.8059 13.244C17.0152 13.244 17.2356 13.288 17.4779 13.387C17.7203 13.486 17.9737 13.629 18.2491 13.816L21.8956 16.401C22.182 16.599 22.3803 16.83 22.5015 17.105C22.6116 17.38 22.6777 17.655 22.6777 17.963Z" fill="white"/>
</svg>
