<svg xmlns="http://www.w3.org/2000/svg">
    <symbol id="icon-dots" viewBox="0 0 15 15" fill="none" xmlns="http://www.w3.org/2000/svg">
        <circle cx="3" cy="2.99902" r="3" fill="currentColor" />
        <circle cx="12" cy="2.99902" r="3" fill="currentColor" />
        <circle cx="12" cy="11.999" r="3" fill="currentColor" />
        <circle cx="3" cy="11.999" r="3" fill="currentColor" />
    </symbol>
    <symbol id="icon-search" viewBox="0 0 26 26" fill="none" xmlns="http://www.w3.org/2000/svg">
        <path
            d="M11.5 20C16.1944 20 20 16.1944 20 11.5C20 6.80558 16.1944 3 11.5 3C6.80558 3 3 6.80558 3 11.5C3 16.1944 6.80558 20 11.5 20Z"
            stroke="currentColor" stroke-width="2" stroke-linecap="round" stroke-linejoin="round" />
        <path d="M23 23L18 18" stroke="currentColor" stroke-width="2" stroke-linecap="round" stroke-linejoin="round" />
    </symbol>
    <symbol id="icon-like" viewBox="0 0 22 20" fill="none" xmlns="http://www.w3.org/2000/svg">
        <path
            d="M15.884 0C13.893 0 12.111 0.988764 11 2.50562C9.889 0.988764 8.107 0 6.116 0C2.739 0 0 2.80899 0 6.2809C0 7.61798 0.209 8.85393 0.572 10C2.31 15.618 7.667 18.9775 10.318 19.8989C10.692 20.0337 11.308 20.0337 11.682 19.8989C14.333 18.9775 19.69 15.618 21.428 10C21.791 8.85393 22 7.61798 22 6.2809C22 2.80899 19.261 0 15.884 0Z"
            fill="currentColor" />
    </symbol>
    <symbol id="icon-person" viewBox="0 0 18 21" fill="none" xmlns="http://www.w3.org/2000/svg">
        <path fill-rule="evenodd" clip-rule="evenodd"
            d="M14 5C14 7.76142 11.7614 10 9 10C6.23858 10 4 7.76142 4 5C4 2.23858 6.23858 0 9 0C11.7614 0 14 2.23858 14 5ZM0 19.5C0 15.36 4.0396 13 9 13C13.9604 13 18 15.36 18 19.5C18 20.585 17.4157 21 16.5149 21H1.48515C1.07905 21 0 21 0 19.5Z"
            fill="currentColor" />
    </symbol>
    <symbol id="icon-shopping-cart" viewBox="0 0 21 22" fill="none" xmlns="http://www.w3.org/2000/svg">
        <path fill-rule="evenodd" clip-rule="evenodd"
            d="M3.71513 2.69L3.51817 5.14C3.47877 5.61 3.84315 6 4.30601 6H19.3833C19.7969 6 20.1416 5.68 20.1712 5.26C20.2992 3.49 18.9697 2.05 17.2266 2.05H5.12339C5.02491 1.61 4.82795 1.19 4.52266 0.84C4.03026 0.31 3.3409 0 2.63184 0H0.918289C0.51452 0 0.179688 0.34 0.179688 0.75C0.179688 1.16 0.51452 1.5 0.918289 1.5H2.63184C2.93713 1.5 3.22273 1.63 3.42953 1.85C3.63634 2.08 3.73482 2.38 3.71513 2.69ZM9.17969 20C9.17969 21.1046 8.28426 22 7.17969 22C6.07512 22 5.17969 21.1046 5.17969 20C5.17969 18.8954 6.07512 18 7.17969 18C8.28426 18 9.17969 18.8954 9.17969 20ZM17.1797 20C17.1797 21.1046 16.2843 22 15.1797 22C14.0751 22 13.1797 21.1046 13.1797 20C13.1797 18.8954 14.0751 18 15.1797 18C16.2843 18 17.1797 18.8954 17.1797 20ZM4.32925 8H19.4005C19.8623 8 20.216 8.37818 20.1767 8.82424L19.8525 13.3527C19.7444 14.8073 18.4475 16 16.9738 16H6.04859C4.36854 16 3.05202 14.5842 3.18956 12.9261L3.54326 8.70788C3.58256 8.3103 3.9166 8 4.32925 8Z"
            fill="currentColor" />
    </symbol>
    <symbol id="icon-category-bg" viewBox="0 0 388 462" fill="none" xmlns="http://www.w3.org/2000/svg">
        <path fill-rule="evenodd" clip-rule="evenodd"
            d="M83.6289 455.625C98.8589 469.226 121.265 458.556 132.088 441.241C146.648 417.948 169.193 403 194.5 403C219.626 403 242.029 417.735 256.598 440.741C267.533 458.011 290.025 468.583 305.196 454.884C355.264 409.675 388 334.764 388 250C388 243.069 382.224 237.709 375.336 236.937C355.438 234.707 337.984 226.446 330.992 211.451C321.908 191.971 330.108 169.463 348.347 150.371C357.937 140.333 362.795 125.802 356.517 113.42C321.885 45.1273 262.032 0 194 0C86.8568 0 0 111.929 0 250C0 335.229 33.0956 410.496 83.6289 455.625Z"
            fill="currentColor" />
    </symbol>
    <symbol id="icon-category-label" viewBox="0 0 95 199" fill="none" xmlns="http://www.w3.org/2000/svg">
        <path
            d="M87.6027 187.638L88.8383 188.603L83.913 194.908L82.5261 193.824L85.8063 189.625L79.311 191.312L78.0754 190.347L83.0007 184.043L84.3876 185.126L81.1074 189.325L87.6027 187.638Z"
            fill="white" />
        <path
            d="M77.7198 179.143C78.3517 179.733 78.7637 180.401 78.9559 181.149C79.1408 181.905 79.0153 182.634 78.5794 183.336L77.2571 182.103C77.5511 181.444 77.3743 180.812 76.7268 180.208C76.3607 179.881 76.0149 179.705 75.6895 179.678C75.3562 179.645 75.0768 179.749 74.8513 179.991C74.6185 180.24 74.53 180.515 74.5858 180.815C74.6343 181.123 74.8223 181.429 75.15 181.735L75.8404 182.379L74.9565 183.327L74.2895 182.705C74.0165 182.45 73.7474 182.308 73.4822 182.28C73.2098 182.259 72.9645 182.366 72.7463 182.6C72.5353 182.826 72.4574 183.082 72.5126 183.367C72.5606 183.659 72.7328 183.944 73.0292 184.22C73.6143 184.766 74.2029 184.87 74.7948 184.532L76.082 185.733C75.4194 186.208 74.7312 186.383 74.0174 186.257C73.2957 186.124 72.6385 185.781 72.0456 185.228C71.3513 184.581 70.9697 183.919 70.9008 183.242C70.8246 182.573 71.0011 182.008 71.4303 181.548C71.9395 181.002 72.5321 180.789 73.2079 180.908C72.8993 180.066 73.0432 179.326 73.6397 178.686C74.0908 178.202 74.6981 177.981 75.4618 178.022C76.2104 178.064 76.9631 178.438 77.7198 179.143Z"
            fill="white" />
        <path
            d="M73.0893 174.508L67.3346 180.065L63.689 176.29L64.8169 175.2L67.2399 177.71L71.8667 173.242L73.0893 174.508Z"
            fill="white" />
        <path
            d="M62.4144 164.598C63.543 164.676 64.4957 165.163 65.2725 166.056C66.0493 166.95 66.4017 167.965 66.3298 169.102C66.2428 170.237 65.7606 171.186 64.8831 171.949C64.0056 172.712 63.0026 173.054 61.874 172.975C60.7303 172.895 59.7701 172.408 58.9933 171.515C58.2165 170.621 57.8716 169.607 57.9586 168.471C58.0305 167.334 58.5052 166.385 59.3827 165.622C60.2602 164.859 61.2708 164.518 62.4144 164.598ZM64.0408 167.127C63.5859 166.604 63.0304 166.33 62.3742 166.307C61.703 166.283 61.0977 166.505 60.5584 166.974C60.019 167.443 59.7186 168.008 59.6573 168.669C59.5809 169.329 59.7701 169.921 60.225 170.444C60.6869 170.975 61.2534 171.253 61.9246 171.277C62.5808 171.301 63.1786 171.078 63.7179 170.609C64.2573 170.14 64.5652 169.576 64.6416 168.916C64.7029 168.254 64.5027 167.658 64.0408 167.127Z"
            fill="white" />
        <path
            d="M60.0221 160.123L54.9536 164.083L56.4312 165.974L55.1956 166.939L51.0879 161.682L52.3235 160.716L53.87 162.696L58.9385 158.736L60.0221 160.123Z"
            fill="white" />
        <path
            d="M50.6976 148.918C51.8118 149.114 52.7085 149.698 53.3876 150.667C54.0667 151.637 54.3111 152.684 54.1208 153.807C53.9156 154.927 53.3368 155.821 52.3844 156.487C51.432 157.154 50.3987 157.389 49.2845 157.193C48.1554 156.994 47.2514 156.409 46.5722 155.44C45.8931 154.47 45.6562 153.425 45.8614 152.304C46.0517 151.181 46.6231 150.287 47.5755 149.62C48.5279 148.953 49.5686 148.719 50.6976 148.918ZM52.0507 151.604C51.6531 151.036 51.1291 150.706 50.479 150.614C49.814 150.52 49.1888 150.678 48.6033 151.088C48.0179 151.497 47.6601 152.028 47.53 152.679C47.3851 153.327 47.5114 153.936 47.9091 154.504C48.3129 155.08 48.8473 155.416 49.5123 155.51C50.1625 155.602 50.7803 155.443 51.3657 155.033C51.9511 154.623 52.3163 154.094 52.4613 153.445C52.5914 152.794 52.4545 152.18 52.0507 151.604Z"
            fill="white" />
        <path
            d="M49.8181 145.32L42.9607 149.44L41.0819 146.314C40.6094 145.527 40.4342 144.811 40.5564 144.165C40.6786 143.52 41.0185 143.029 41.5762 142.694C42.0608 142.403 42.5895 142.34 43.1621 142.506C43.1177 141.625 43.4566 140.967 44.1789 140.533C44.7549 140.187 45.3631 140.101 46.0035 140.276C46.6347 140.457 47.2003 140.963 47.7002 141.796L49.8181 145.32ZM47.6361 144.578L46.433 142.576C46.2517 142.274 46.0357 142.08 45.7851 141.994C45.5197 141.905 45.2545 141.94 44.9894 142.099C44.7151 142.264 44.5597 142.482 44.5233 142.752C44.4722 143.02 44.5374 143.304 44.7187 143.606L45.9218 145.608L47.6361 144.578ZM44.8246 146.267L43.8193 144.594C43.6709 144.347 43.4879 144.177 43.2701 144.084C43.0378 143.987 42.7844 144.021 42.5101 144.186C41.9981 144.494 41.9179 144.94 42.2695 145.525L43.2749 147.198L44.8246 146.267Z"
            fill="white" />
        <path
            d="M44.2686 135.731C44.4539 136.079 44.5703 136.344 44.6177 136.524L43.2756 137.237C43.1843 137.02 43.1111 136.86 43.056 136.756C42.9008 136.464 42.6914 136.298 42.4279 136.256C42.155 136.22 41.7737 136.333 41.284 136.593L36.7916 138.982L33.7344 133.232L40.7979 129.476L41.6242 131.03L35.9451 134.05L37.3497 136.691L40.6979 134.911C41.4984 134.486 42.2136 134.365 42.8433 134.55C43.468 134.725 43.9431 135.119 44.2686 135.731Z"
            fill="white" />
        <path
            d="M37.1187 124.006C37.6235 125.089 37.6854 126.143 37.3043 127.168C36.9135 128.198 36.1719 128.967 35.0795 129.477C33.9871 129.986 32.928 130.062 31.9022 129.705C30.8668 129.352 30.0898 128.62 29.5714 127.508C29.0485 126.387 29.0185 125.3 29.4815 124.249C29.9348 123.202 30.7886 122.433 32.0427 121.942L34.7339 127.713C35.2856 127.433 35.6553 127.001 35.843 126.42C36.0307 125.838 35.978 125.233 35.685 124.604C35.2703 123.715 34.6479 123.264 33.818 123.25L33.0403 121.583C33.8497 121.476 34.6281 121.631 35.3755 122.047C36.1229 122.464 36.7039 123.117 37.1187 124.006ZM30.9258 126.929C31.1692 127.451 31.5287 127.831 32.0042 128.068C32.4655 128.3 32.9916 128.343 33.5826 128.197L31.7095 124.181C31.2029 124.558 30.8929 124.991 30.7793 125.479C30.6561 125.972 30.7049 126.456 30.9258 126.929Z"
            fill="white" />
        <path
            d="M34.7545 116.782L27.337 119.779L26.6777 118.147L29.6151 116.96L28.1706 113.385L25.2333 114.572L24.5739 112.94L31.9914 109.943L32.6507 111.575L29.6244 112.798L31.0689 116.373L34.0952 115.15L34.7545 116.782Z"
            fill="white" />
        <path
            d="M29.5038 104.817L30.0143 106.3L22.4501 108.904L21.8771 107.24L26.9148 105.506L20.5488 103.382L20.0383 101.9L27.6024 99.2953L28.1754 100.959L23.1377 102.694L29.5038 104.817Z"
            fill="white" />
        <path
            d="M25.4257 91.3872C25.755 92.5356 25.6512 93.5862 25.1144 94.5391C24.5674 95.4949 23.7145 96.139 22.5559 96.4712C21.3972 96.8034 20.3393 96.7129 19.382 96.1995C18.4145 95.6891 17.7617 94.8443 17.4236 93.6651C17.0825 92.4757 17.2229 91.398 17.8447 90.4318C18.4562 89.4686 19.4197 88.8428 20.7352 88.5544L22.4904 94.6757C23.0792 94.4846 23.5118 94.1165 23.7882 93.5712C24.0646 93.0259 24.1073 92.42 23.9162 91.7535C23.6457 90.8102 23.1016 90.2671 22.2839 90.1243L21.7767 88.3556C22.5928 88.3768 23.3374 88.6515 24.0104 89.1798C24.6834 89.7081 25.1552 90.4439 25.4257 91.3872ZM18.8518 93.3055C19.0106 93.8592 19.3062 94.2904 19.7387 94.5992C20.1581 94.9006 20.671 95.0254 21.2775 94.9735L20.0559 90.7132C19.4965 91.0068 19.1225 91.3859 18.9339 91.8505C18.7351 92.3181 18.7077 92.8031 18.8518 93.3055Z"
            fill="white" />
        <path
            d="M22.5125 79.5553L14.6873 81.2186L14.3214 79.4971L17.4201 78.8384L16.6184 75.0667L13.5197 75.7253L13.1537 74.0038L20.9789 72.3405L21.3448 74.0621L18.1522 74.7407L18.9539 78.5124L22.1466 77.8338L22.5125 79.5553Z"
            fill="white" />
        <path
            d="M19.3233 64.8456C19.4935 65.9202 19.2367 66.8897 18.5528 67.754C17.8672 68.6077 16.9555 69.1247 15.8177 69.3049C14.6799 69.4851 13.6531 69.2752 12.7373 68.6751C11.8198 68.0644 11.2759 67.2218 11.1057 66.1472C11.0206 65.6099 11.0634 65.0955 11.2339 64.6041C11.394 64.1144 11.6233 63.7217 11.9221 63.426L10.8633 63.5937L10.588 61.8553L18.4895 60.6039L18.7648 62.3422L17.706 62.5099C18.0815 62.6988 18.4263 63.0006 18.7404 63.4152C19.0439 63.8315 19.2382 64.3083 19.3233 64.8456ZM17.2338 66.5859C17.6484 66.0667 17.8014 65.4647 17.6929 64.7799C17.5845 64.0951 17.2529 63.5698 16.6982 63.2041C16.1435 62.8384 15.5079 62.7122 14.7915 62.8257C14.0751 62.9392 13.5096 63.2555 13.0951 63.7748C12.6806 64.294 12.5275 64.896 12.636 65.5808C12.7444 66.2656 13.076 66.7909 13.6307 67.1566C14.1854 67.5223 14.821 67.6485 15.5374 67.535C16.2538 67.4215 16.8193 67.1052 17.2338 66.5859Z"
            fill="white" />
        <path
            d="M17.7721 48.0909C17.8474 48.9516 17.7062 49.7242 17.3485 50.4086C16.9802 51.094 16.3992 51.5517 15.6056 51.7817L15.448 49.9806C16.1076 49.6873 16.3988 49.0997 16.3217 48.2178C16.2683 47.7299 16.1295 47.3673 15.9053 47.1299C15.6801 46.8819 15.4029 46.7723 15.0734 46.8012C14.7334 46.8309 14.4838 46.9759 14.3245 47.2361C14.1546 47.4972 14.0892 47.8509 14.1282 48.2972L14.2105 49.2376L12.9194 49.3506L12.84 48.4421C12.8074 48.0702 12.7022 47.7849 12.5242 47.5863C12.3356 47.3887 12.0819 47.3038 11.7631 47.3317C11.4549 47.3587 11.2261 47.4965 11.0765 47.7451C10.9163 47.9947 10.8539 48.3214 10.8892 48.7252C10.9589 49.5221 11.3267 49.9932 11.9926 50.1384L12.146 51.8917C11.3351 51.802 10.7065 51.4715 10.2604 50.9002C9.8133 50.3183 9.55443 49.6236 9.48378 48.816C9.40104 47.8703 9.5605 47.1229 9.96217 46.5738C10.3532 46.0256 10.8622 45.7241 11.4891 45.6693C12.233 45.6042 12.8159 45.8423 13.2381 46.3835C13.5721 45.5513 14.1748 45.097 15.0462 45.0208C15.705 44.9631 16.3044 45.2051 16.8443 45.7468C17.3727 46.2788 17.6819 47.0601 17.7721 48.0909Z"
            fill="white" />
        <path
            d="M16.9101 36.9585C16.967 38.045 16.6103 38.9823 15.8398 39.7704C15.0688 40.5478 14.108 40.9667 12.9576 41.027C11.8072 41.0873 10.8079 40.7711 9.95987 40.0786C9.11123 39.3753 8.65844 38.4805 8.6015 37.394C8.57303 36.8507 8.66929 36.3437 8.89029 35.8728C9.10063 35.4025 9.36981 35.0359 9.69783 34.773L8.6273 34.8291L8.53519 33.0715L16.5242 32.6528L16.6163 34.4104L15.5458 34.4665C15.8995 34.6937 16.2109 35.0298 16.4799 35.475C16.7382 35.9208 16.8816 36.4153 16.9101 36.9585ZM14.6502 38.4709C15.1167 37.9978 15.3318 37.4151 15.2955 36.7227C15.2593 36.0303 14.9844 35.4733 14.471 35.0516C13.9575 34.6299 13.3386 34.438 12.6143 34.476C11.8899 34.5139 11.2945 34.7694 10.828 35.2425C10.3614 35.7156 10.1463 36.2983 10.1826 36.9907C10.2188 37.6831 10.4937 38.2401 11.0072 38.6618C11.5206 39.0835 12.1395 39.2754 12.8638 39.2374C13.5882 39.1995 14.1836 38.944 14.6502 38.4709Z"
            fill="white" />
        <path
            d="M15.999 23.5045L12.591 27.0565L15.999 27.0565L15.999 28.8165L7.99902 28.8165L7.99902 27.0565L11.423 27.0565L7.99902 23.9045L7.99902 21.7605L11.935 25.3925L15.999 21.1845L15.999 23.5045Z"
            fill="white" />
        <path
            d="M16.309 15.9287C16.271 17.016 15.8339 17.9187 14.9977 18.6366C14.1618 19.3438 13.1683 19.6774 12.017 19.6372C10.8657 19.597 9.89776 19.1949 9.11328 18.4311C8.32916 17.6566 7.95609 16.7257 7.99406 15.6383C8.01305 15.0947 8.15313 14.5979 8.41433 14.1481C8.66486 13.6979 8.96497 13.3561 9.31465 13.1229L8.24331 13.0855L8.30473 11.3265L16.2999 11.6057L16.2384 13.3647L15.1671 13.3272C15.4996 13.5843 15.7805 13.9464 16.0097 14.4133C16.2282 14.8799 16.328 15.385 16.309 15.9287ZM13.9258 17.2383C14.4318 16.8077 14.6969 16.246 14.7211 15.553C14.7453 14.8601 14.5201 14.2812 14.0453 13.8164C13.5706 13.3515 12.9708 13.1065 12.2459 13.0812C11.521 13.0558 10.9056 13.2585 10.3996 13.6891C9.89355 14.1197 9.62845 14.6814 9.60425 15.3744C9.58006 16.0673 9.80533 16.6461 10.2801 17.111C10.7548 17.5759 11.3546 17.8209 12.0795 17.8462C12.8044 17.8716 13.4198 17.6689 13.9258 17.2383Z"
            fill="white" />
        <path
            d="M16.4085 4.8366C16.3482 5.69849 16.0879 6.43947 15.6275 7.05953C15.1565 7.67885 14.5111 8.04004 13.6912 8.1431L13.8173 6.33951C14.5147 6.15303 14.8943 5.61821 14.956 4.73503C14.9796 4.24482 14.8993 3.86495 14.7149 3.59544C14.5314 3.31528 14.2747 3.16367 13.9448 3.14061C13.6043 3.1168 13.335 3.22094 13.137 3.45302C12.9284 3.68436 12.8084 4.02349 12.7772 4.4704L12.7113 5.4121L11.4185 5.32169L11.4821 4.41192C11.5082 4.03949 11.4488 3.74129 11.3041 3.51732C11.1487 3.2926 10.9114 3.16908 10.5922 3.14676C10.2836 3.12518 10.036 3.22548 9.8494 3.44767C9.65214 3.66912 9.53937 3.98202 9.5111 4.38636C9.45529 5.18441 9.74486 5.70722 10.3798 5.95478L10.257 7.71049C9.47014 7.49508 8.90105 7.07035 8.54976 6.4363C8.19921 5.79161 8.05221 5.06492 8.10876 4.25622C8.17498 3.3092 8.4494 2.59594 8.93203 2.11644C9.40401 1.63619 9.9539 1.41802 10.5817 1.46192C11.3266 1.51401 11.8651 1.84037 12.1973 2.44101C12.6575 1.67123 13.3238 1.31685 14.1964 1.37786C14.8561 1.42399 15.4102 1.75679 15.8588 2.37626C16.2974 2.98434 16.4807 3.80445 16.4085 4.8366Z"
            fill="white" />
    </symbol>
    <symbol id="icon-arrow" viewBox="0 0 23 34" fill="none" xmlns="http://www.w3.org/2000/svg">
        <path
            d="M21.2734 22.6667C20.2134 22.6667 18.6306 23.7051 17.302 24.7562C15.5877 26.1077 14.092 27.7227 12.9506 29.5743C12.0949 30.9627 11.2734 32.6457 11.2734 34M11.2734 34C11.2734 32.6457 10.452 30.9612 9.5963 29.5743C8.45344 27.7227 6.95772 26.1077 5.2463 24.7562C3.9163 23.7051 2.33058 22.6667 1.27344 22.6667M11.2734 34L11.2734 -1.11265e-06"
            stroke="currentColor" stroke-width="2" stroke-linecap="round" />
    </symbol>
    <symbol id="icon-star" viewBox="0 0 22 22" fill="none" xmlns="http://www.w3.org/2000/svg">
        <path
            d="M10.4936 0.633555L12.0053 9.8985L21.3531 10.7607L12.0881 12.2729L11.2254 21.6208L9.71367 12.3559L0.365883 11.4936L9.63088 9.98142L10.4936 0.633555Z"
            fill="currentColor" />
    </symbol>
    <symbol id="icon-blog-bg" viewBox="0 0 580 343" fill="none" xmlns="http://www.w3.org/2000/svg">
        <path fill-rule="evenodd" clip-rule="evenodd"
            d="M337 0.766602C314.909 0.766602 297 18.6752 297 40.7666L297 76.7666C297 80.6326 293.866 83.7666 290 83.7666C286.134 83.7666 283 80.6326 283 76.7666L283 40.7666C283 18.6752 265.091 0.766602 243 0.766602L40 0.766602C17.9086 0.766602 0 18.6752 0 40.7666L0 302.767C0 324.858 17.9086 342.767 40 342.767L103.183 342.767C110.089 342.767 115.821 337.668 117.975 331.107C126.859 304.051 150.891 284.767 179.5 284.767C207.965 284.767 232.606 303.858 242.59 330.699C245.062 337.347 251.433 342.519 258.007 339.856C272.663 333.92 283 319.551 283 302.767V266.767C283 262.901 286.134 259.767 290 259.767C293.866 259.767 297 262.901 297 266.767V302.767C297 324.858 314.909 342.767 337 342.767L540 342.767C562.091 342.767 580 324.858 580 302.767L580 40.7666C580 18.6752 562.091 0.766602 540 0.766602L337 0.766602Z"
            fill="currentColor" />
    </symbol>
    <symbol id="icon-blog-bg-mobile" viewBox="0 0 360 243" fill="none" xmlns="http://www.w3.org/2000/svg">
        <path fill-rule="evenodd" clip-rule="evenodd"
            d="M209 0.00097547C195.193 0.00097547 184 11.1939 184 25.001L184 79.001C184 81.2101 182.209 83.001 180 83.001C177.791 83.001 176 81.2101 176 79.001L176 25.001C176 11.1939 164.807 0.00097547 151 0.00097547L25 0.00097547C11.1929 0.00097547 -4.89329e-07 11.1939 -1.09295e-06 25.001L-9.53051e-06 218.001C-1.01341e-05 231.808 11.1929 243.001 25 243.001L65.8523 243.001C67.4579 243.001 68.6954 241.6 68.6657 239.995V239.995C68.2981 220.116 86.879 204.001 110.167 204.001C133.456 204.001 151.298 220.116 151.666 239.995V239.995C151.695 241.604 152.983 242.975 154.577 242.747C163.526 241.465 170.946 235.443 174.211 227.307C175.186 224.877 177.382 223.001 180 223.001C182.618 223.001 184.814 224.877 185.789 227.307C189.481 236.505 198.482 243.001 209 243.001L335 243.001C348.807 243.001 360 231.808 360 218.001L360 25.001C360 11.1939 348.807 0.000976073 335 0.00097547L209 0.00097547Z"
            fill="currentColor" />
    </symbol>
    <symbol id="icon-close" viewBox="0 0 20 20" fill="none" xmlns="http://www.w3.org/2000/svg">
        <path d="M19 1L1 19" stroke="currentColor" stroke-width="2" stroke-linecap="round" stroke-linejoin="round" />
        <path d="M1 1L19 19" stroke="currentColor" stroke-width="2" stroke-linecap="round" stroke-linejoin="round" />
    </symbol>
    <symbol id="icon-like-green" viewBox="0 0 26 24" fill="#ffffff" stroke="currentColor"
        xmlns="http://www.w3.org/2000/svg">
        <path
            d="M23.1494 2.85655L22.441 3.56236L22.4413 3.56269L23.1494 2.85655ZM18.6831 1V2V1ZM14.2167 2.85655L14.925 3.56253L14.9251 3.56236L14.2167 2.85655ZM12.9997 4.07749L12.2915 4.78347L12.9997 5.49397L13.7079 4.78347L12.9997 4.07749ZM11.7826 2.85655L11.0744 3.56253L11.0744 3.56253L11.7826 2.85655ZM2.85001 11.8178L3.55825 11.1118H3.55825L2.85001 11.8178ZM4.06705 13.0387L3.35882 13.7447H3.35882L4.06705 13.0387ZM12.9997 22L12.2915 22.706L12.9997 23.4165L13.7079 22.706L12.9997 22ZM21.9323 13.0387L22.6406 13.7447L21.9323 13.0387ZM23.1494 11.8178L22.4413 11.1117L22.4411 11.1118L23.1494 11.8178ZM23.8578 2.15074C23.1786 1.4691 22.3721 0.928207 21.4842 0.559113L20.7165 2.40591C21.3612 2.67393 21.9473 3.06684 22.441 3.56236L23.8578 2.15074ZM21.4842 0.559113C20.5962 0.190016 19.6444 0 18.6831 0V2C19.3808 2 20.0717 2.1379 20.7165 2.40591L21.4842 0.559113ZM18.6831 0C17.7217 0 16.7699 0.190016 15.8819 0.559113L16.6496 2.40591C17.2944 2.1379 17.9853 2 18.6831 2V0ZM15.8819 0.559113C14.994 0.928207 14.1875 1.4691 13.5083 2.15074L14.9251 3.56236C15.4188 3.06684 16.0049 2.67393 16.6496 2.40591L15.8819 0.559113ZM13.5085 2.15058L12.2915 3.37152L13.7079 4.78347L14.925 3.56253L13.5085 2.15058ZM13.7079 3.37152L12.4909 2.15058L11.0744 3.56253L12.2915 4.78347L13.7079 3.37152ZM12.4909 2.15058C11.1191 0.774353 9.25778 0.000615954 7.31633 0.000615954V2.00062C8.72527 2.00062 10.0772 2.56208 11.0744 3.56253L12.4909 2.15058ZM7.31633 0.000615954C5.37488 0.000615954 3.5136 0.774353 2.14177 2.15058L3.55825 3.56253C4.5555 2.56208 5.90739 2.00062 7.31633 2.00062V0.000615954ZM2.14177 2.15058C0.770051 3.52669 0 5.39243 0 7.33718H2C2 5.9208 2.56089 4.56308 3.55825 3.56253L2.14177 2.15058ZM0 7.33718C0 9.28193 0.770051 11.1477 2.14177 12.5238L3.55825 11.1118C2.56089 10.1113 2 8.75355 2 7.33718H0ZM2.14177 12.5238L3.35882 13.7447L4.77529 12.3328L3.55825 11.1118L2.14177 12.5238ZM3.35882 13.7447L12.2915 22.706L13.7079 21.294L4.77529 12.3328L3.35882 13.7447ZM13.7079 22.706L22.6406 13.7447L21.2241 12.3328L12.2915 21.294L13.7079 22.706ZM22.6406 13.7447L23.8576 12.5238L22.4411 11.1118L21.2241 12.3328L22.6406 13.7447ZM23.8574 12.5239C24.5369 11.8426 25.0757 11.0339 25.4433 10.1439L23.5948 9.38045C23.3273 10.0281 22.9352 10.6164 22.4413 11.1117L23.8574 12.5239ZM25.4433 10.1439C25.8109 9.25402 26 8.30028 26 7.33718H24C24 8.03844 23.8623 8.73276 23.5948 9.38045L25.4433 10.1439ZM26 7.33718C26 6.37407 25.8109 5.42033 25.4433 4.53042L23.5948 5.29391C23.8623 5.94159 24 6.63591 24 7.33718H26ZM25.4433 4.53042C25.0757 3.64049 24.5369 2.83173 23.8574 2.15041L22.4413 3.56269C22.9352 4.05799 23.3273 4.64624 23.5948 5.29391L25.4433 4.53042Z"
            fill="#ffffff" />
    </symbol>
    <symbol id="icon-like-white" viewBox="0 0 34 31" fill="none" xmlns="http://www.w3.org/2000/svg">
        <path
            d="M30.5325 3.4754C29.7506 2.69063 28.8222 2.06809 27.8004 1.64335C26.7786 1.21861 25.6834 1 24.5774 1C23.4714 1 22.3762 1.21861 21.3544 1.64335C20.3326 2.06809 19.4042 2.69063 18.6223 3.4754L16.9996 5.10333L15.3769 3.4754C13.7975 1.89096 11.6554 1.00082 9.42177 1.00082C7.18818 1.00082 5.04607 1.89096 3.46668 3.4754C1.88729 5.05985 1 7.20882 1 9.44957C1 11.6903 1.88729 13.8393 3.46668 15.4237L5.0894 17.0517L16.9996 29L28.9098 17.0517L30.5325 15.4237C31.3148 14.6393 31.9353 13.708 32.3587 12.6829C32.7821 11.6579 33 10.5591 33 9.44957C33 8.33999 32.7821 7.24129 32.3587 6.21622C31.9353 5.19115 31.3148 4.25981 30.5325 3.4754Z"
            fill="white" />
        <path
            d="M30.5325 3.4754L29.8241 4.18121L29.8244 4.18154L30.5325 3.4754ZM24.5774 1V2V1ZM18.6223 3.4754L19.3306 4.18138L19.3307 4.18121L18.6223 3.4754ZM16.9996 5.10333L16.2914 5.8093L16.9996 6.51981L17.7078 5.8093L16.9996 5.10333ZM15.3769 3.4754L14.6686 4.18138V4.18138L15.3769 3.4754ZM3.46668 15.4237L4.17492 14.7178H4.17492L3.46668 15.4237ZM5.0894 17.0517L4.38117 17.7576L4.38117 17.7576L5.0894 17.0517ZM16.9996 29L16.2914 29.706L16.9996 30.4165L17.7078 29.706L16.9996 29ZM28.9098 17.0517L29.618 17.7576V17.7576L28.9098 17.0517ZM30.5325 15.4237L29.8244 14.7176L29.8243 14.7178L30.5325 15.4237ZM31.2409 2.76959C30.3663 1.89176 29.3277 1.19523 28.1843 0.719951L27.4166 2.56675C28.3168 2.94095 29.1349 3.4895 29.8241 4.18121L31.2409 2.76959ZM28.1843 0.719951C27.0409 0.24467 25.8153 0 24.5774 0V2C25.5516 2 26.5164 2.19256 27.4166 2.56675L28.1843 0.719951ZM24.5774 0C23.3396 0 22.1139 0.244669 20.9705 0.719951L21.7382 2.56675C22.6384 2.19256 23.6032 2 24.5774 2V0ZM20.9705 0.719951C19.8272 1.19523 18.7885 1.89176 17.9139 2.76959L19.3307 4.18121C20.0199 3.4895 20.838 2.94095 21.7382 2.56675L20.9705 0.719951ZM17.9141 2.76943L16.2914 4.39735L17.7078 5.8093L19.3306 4.18138L17.9141 2.76943ZM17.7078 4.39735L16.0851 2.76943L14.6686 4.18138L16.2914 5.8093L17.7078 4.39735ZM16.0851 2.76943C14.3184 0.997092 11.9216 0.000821292 9.42177 0.000821292V2.00082C11.3891 2.00082 13.2765 2.78482 14.6686 4.18138L16.0851 2.76943ZM9.42177 0.000821292C6.92193 0.000821292 4.52512 0.997092 2.75844 2.76943L4.17492 4.18138C5.56702 2.78482 7.45443 2.00082 9.42177 2.00082V0.000821292ZM2.75844 2.76943C0.991874 4.54166 0 6.94464 0 9.44957H2C2 7.47301 2.78271 5.57805 4.17492 4.18138L2.75844 2.76943ZM0 9.44957C0 11.9545 0.991874 14.3575 2.75844 16.1297L4.17492 14.7178C2.78271 13.3211 2 11.4261 2 9.44957H0ZM2.75844 16.1297L4.38117 17.7576L5.79764 16.3457L4.17492 14.7178L2.75844 16.1297ZM4.38117 17.7576L16.2914 29.706L17.7078 28.294L5.79764 16.3457L4.38117 17.7576ZM17.7078 29.706L29.618 17.7576L28.2015 16.3457L16.2914 28.294L17.7078 29.706ZM29.618 17.7576L31.2407 16.1297L29.8243 14.7178L28.2015 16.3457L29.618 17.7576ZM31.2406 16.1299C32.1156 15.2525 32.8096 14.2109 33.283 13.0647L31.4344 12.3012C31.0611 13.2051 30.5139 14.0262 29.8244 14.7176L31.2406 16.1299ZM33.283 13.0647C33.7564 11.9185 34 10.6901 34 9.44957H32C32 10.4282 31.8078 11.3972 31.4344 12.3012L33.283 13.0647ZM34 9.44957C34 8.20907 33.7564 6.98066 33.283 5.83447L31.4344 6.59797C31.8078 7.50191 32 8.47091 32 9.44957H34ZM33.283 5.83447C32.8096 4.68828 32.1156 3.64668 31.2406 2.76926L29.8244 4.18154C30.5139 4.87294 31.0611 5.69402 31.4344 6.59797L33.283 5.83447Z"
            fill="#FFB1F7" />
    </symbol>
    <symbol id="icon-trash" viewBox="0 0 29 29" fill="none" xmlns="http://www.w3.org/2000/svg">
        <path
            d="M26.1489 5.08394C24.169 4.87956 22.189 4.72628 20.1968 4.61131V4.59854L19.9262 2.93796C19.7417 1.76277 19.4712 0 16.5935 0H13.3715C10.5061 0 10.2355 1.68613 10.0388 2.92518L9.7805 4.56022C8.6368 4.63686 7.4931 4.7135 6.34941 4.82847L3.84065 5.08394C3.32414 5.13504 2.95521 5.60766 3.0044 6.13139C3.05359 6.65511 3.49631 7.03832 4.01282 6.98723L6.52158 6.73175C12.9656 6.06752 19.4589 6.32299 25.9767 7C26.0136 7 26.0382 7 26.0751 7C26.5424 7 26.9483 6.62956 26.9975 6.13139C27.0344 5.60766 26.6654 5.13504 26.1489 5.08394Z"
            fill="currentColor" />
        <path
            d="M23.5935 9.46769C23.3082 9.16789 22.916 9 22.5119 9H7.48813C7.08401 9 6.67989 9.16789 6.40651 9.46769C6.13314 9.76749 5.97862 10.1752 6.0024 10.5949L6.73932 22.8987C6.87006 24.7215 7.03647 27 11.1846 27H18.8154C22.9635 27 23.1299 24.7335 23.2607 22.8987L23.9976 10.6069C24.0214 10.1752 23.8669 9.76749 23.5935 9.46769ZM16.9731 20.992H13.0151C12.5277 20.992 12.1236 20.5843 12.1236 20.0926C12.1236 19.6009 12.5277 19.1932 13.0151 19.1932H16.9731C17.4604 19.1932 17.8645 19.6009 17.8645 20.0926C17.8645 20.5843 17.4604 20.992 16.9731 20.992ZM17.9715 16.1952H12.0285C11.5412 16.1952 11.1371 15.7875 11.1371 15.2958C11.1371 14.8041 11.5412 14.3964 12.0285 14.3964H17.9715C18.4588 14.3964 18.8629 14.8041 18.8629 15.2958C18.8629 15.7875 18.4588 16.1952 17.9715 16.1952Z"
            fill="currentColor" />
    </symbol>
    <symbol id="icon-arrow-right" viewBox="0 0 42 16" fill="none" xmlns="http://www.w3.org/2000/svg">
        <path
            d="M41.7071 8.70711C42.0976 8.31658 42.0976 7.68342 41.7071 7.29289L35.3431 0.928932C34.9526 0.538408 34.3195 0.538408 33.9289 0.928932C33.5384 1.31946 33.5384 1.95262 33.9289 2.34315L39.5858 8L33.9289 13.6569C33.5384 14.0474 33.5384 14.6805 33.9289 15.0711C34.3195 15.4616 34.9526 15.4616 35.3431 15.0711L41.7071 8.70711ZM0 9H41V7H0V9Z"
            fill="white" />
    </symbol>
    <symbol id="icon-loc" viewBox="0 0 70 96" fill="none" xmlns="http://www.w3.org/2000/svg">
        <path
            d="M70 36.3619C70 54.0207 56.7063 68.6562 40.3261 71.2985C39.5652 71.7238 37.2826 73.9808 35 80C31.1956 71.7238 30.4348 71.7238 29.674 71.2985C13.2937 68.6562 0 54.0207 0 36.3619C0 16.8321 16.0902 1 35 1C53.9098 1 70 16.8321 70 36.3619Z"
            fill="#FA8FEF" />
        <path
            d="M35 45C40.5228 45 45 40.5228 45 35C45 29.4772 40.5228 25 35 25C29.4772 25 25 29.4772 25 35C25 40.5228 29.4772 45 35 45Z"
            fill="white" />
        <path
            d="M35 95C38.3137 95 41 92.3137 41 89C41 85.6863 38.3137 83 35 83C31.6863 83 29 85.6863 29 89C29 92.3137 31.6863 95 35 95Z"
            fill="white" />
        <path
            d="M35 92C36.6569 92 38 90.6569 38 89C38 87.3431 36.6569 86 35 86C33.3431 86 32 87.3431 32 89C32 90.6569 33.3431 92 35 92Z"
            fill="#FA8FEF" />
    </symbol>
    <symbol id="icon-arrow-secondary" viewBox="0 0 16 24" fill="none" xmlns="http://www.w3.org/2000/svg">
        <path
            d="M9 1C9 0.447715 8.55228 0 8 0C7.44772 0 7 0.447715 7 1L9 1ZM7.29289 23.7071C7.68342 24.0976 8.31658 24.0976 8.70711 23.7071L15.0711 17.3431C15.4616 16.9526 15.4616 16.3195 15.0711 15.9289C14.6805 15.5384 14.0474 15.5384 13.6569 15.9289L8 21.5858L2.34315 15.9289C1.95262 15.5384 1.31946 15.5384 0.928932 15.9289C0.538408 16.3195 0.538408 16.9526 0.928932 17.3431L7.29289 23.7071ZM7 1L7 23H9L9 1L7 1Z"
            fill="currentColor" />
    </symbol>
    <symbol id="icon-tg" viewBox="0 0 20 21" fill="none" xmlns="http://www.w3.org/2000/svg">
        <path
            d="M18.6993 4.65152L16.0586 17.1046C15.8593 17.9834 15.3399 18.2021 14.6018 17.7884L10.578 14.8234L8.63675 16.6909C8.42175 16.9059 8.24237 17.0853 7.828 17.0853L8.11737 12.9878L15.5743 6.24964C15.8986 5.96089 15.5036 5.80027 15.0705 6.08964L5.85175 11.8946L1.883 10.6521C1.01987 10.3828 1.00425 9.78902 2.063 9.37464L17.5861 3.39402C18.3049 3.12464 18.9336 3.55402 18.6993 4.65214V4.65152Z"
            fill="currentColor" />
    </symbol>
    <symbol id="icon-twitter" viewBox="0 0 16 13" fill="none" xmlns="http://www.w3.org/2000/svg">
        <path
            d="M16.001 2.22322C15.4126 2.46376 14.7805 2.62629 14.116 2.69975C14.8016 2.32125 15.3146 1.72555 15.5592 1.02378C14.915 1.37678 14.21 1.62525 13.4748 1.7584C12.9804 1.27138 12.3255 0.948578 11.6119 0.840106C10.8982 0.731635 10.1658 0.843563 9.52814 1.15851C8.89052 1.47347 8.38345 1.97382 8.08564 2.58189C7.78784 3.18996 7.71597 3.87173 7.88118 4.52135C6.57593 4.46089 5.29905 4.14789 4.1334 3.60269C2.96775 3.05748 1.93938 2.29224 1.11504 1.35663C0.833179 1.80521 0.671108 2.32529 0.671108 2.87918C0.670793 3.37781 0.803889 3.8688 1.05859 4.30859C1.31328 4.74838 1.6817 5.12337 2.13116 5.40029C1.60991 5.38499 1.10016 5.25505 0.644331 5.02128V5.06029C0.644278 5.75963 0.906487 6.43746 1.38647 6.97875C1.86645 7.52004 2.53463 7.89145 3.27764 8.02997C2.79409 8.15071 2.28713 8.16849 1.79504 8.08198C2.00467 8.68373 2.41302 9.20993 2.96292 9.58693C3.51282 9.96392 4.17673 10.1728 4.86172 10.1844C3.69891 11.0266 2.26285 11.4834 0.784558 11.4814C0.522693 11.4815 0.26105 11.4673 0.000976562 11.4391C1.50153 12.3292 3.24829 12.8016 5.03225 12.7998C11.0712 12.7998 14.3725 8.18535 14.3725 4.18329C14.3725 4.05327 14.369 3.92195 14.3626 3.79193C15.0048 3.36349 15.5591 2.83296 15.9996 2.22517L16.001 2.22322Z"
            fill="currentColor" />
    </symbol>
    <symbol id="icon-linkedin" viewBox="0 0 18 19" fill="none" xmlns="http://www.w3.org/2000/svg">
        <path
            d="M4.64977 16.5498H1.38446V6.03443H4.64977V16.5498ZM3.01515 4.60005C1.97115 4.60005 1.12402 3.73493 1.12402 2.69093C1.12402 2.18937 1.32327 1.70836 1.67792 1.3537C2.03258 0.999048 2.51359 0.799805 3.01515 0.799805C3.51671 0.799805 3.99772 0.999048 4.35238 1.3537C4.70703 1.70836 4.90627 2.18937 4.90627 2.69093C4.90627 3.73493 4.05915 4.60005 3.01515 4.60005ZM16.8706 16.5498H13.6126V11.4311C13.6126 10.211 13.5879 8.64668 11.915 8.64668C10.2174 8.64668 9.95696 9.97193 9.95696 11.3433V16.5498H6.69502V6.03443H9.82646V7.4688H9.87202C10.308 6.64249 11.3728 5.77062 12.9613 5.77062C16.266 5.77062 16.8735 7.94693 16.8735 10.7735V16.5498H16.8706Z"
            fill="currentColor" />
    </symbol>
    <symbol id="icon-fb" viewBox="0 0 10 18" fill="none" xmlns="http://www.w3.org/2000/svg">
        <path
            d="M9.02269 9.82524L9.47877 6.66408H6.6258V4.61359C6.6258 3.74876 7.02441 2.90485 8.30222 2.90485H9.59932V0.213592C9.59932 0.213592 8.42217 0 7.29665 0C4.94697 0 3.41119 1.51394 3.41119 4.25476V6.66408H0.799316V9.82524H3.41119V17.4671C4.47625 17.6443 5.56074 17.6443 6.6258 17.4671V9.82524H9.02269Z"
            fill="currentColor" />
    </symbol>
    <symbol id="icon-tel" viewBox="0 0 23 22" fill="none" xmlns="http://www.w3.org/2000/svg">
        <path
            d="M22.6777 17.963C22.6777 18.359 22.5896 18.766 22.4023 19.162C22.215 19.558 21.9727 19.932 21.6532 20.284C21.1134 20.878 20.5185 21.307 19.8465 21.582C19.1855 21.857 18.4694 22 17.6983 22C16.5746 22 15.3738 21.736 14.1069 21.197C12.84 20.658 11.5731 19.932 10.3172 19.019C9.05029 18.095 7.84949 17.072 6.70377 15.939C5.56907 14.795 4.54453 13.596 3.63016 12.342C2.72681 11.088 1.99972 9.834 1.47092 8.591C0.942131 7.337 0.677734 6.138 0.677734 4.994C0.677734 4.246 0.809933 3.531 1.07433 2.871C1.33873 2.2 1.75735 1.584 2.34123 1.034C3.04629 0.341 3.81744 0 4.63267 0C4.94113 0 5.24959 0.0660001 5.52501 0.198C5.81144 0.33 6.06482 0.528 6.26311 0.814L8.81895 4.411C9.01724 4.686 9.16046 4.939 9.25961 5.181C9.35876 5.412 9.41384 5.643 9.41384 5.852C9.41384 6.116 9.33672 6.38 9.18249 6.633C9.03928 6.886 8.82996 7.15 8.56557 7.414L7.72831 8.283C7.60713 8.404 7.55205 8.547 7.55205 8.723C7.55205 8.811 7.56306 8.888 7.5851 8.976C7.61815 9.064 7.6512 9.13 7.67323 9.196C7.87153 9.559 8.21304 10.032 8.69776 10.604C9.19351 11.176 9.7223 11.759 10.2952 12.342C10.8901 12.925 11.4629 13.464 12.0468 13.959C12.6196 14.443 13.0934 14.773 13.4679 14.971C13.523 14.993 13.5891 15.026 13.6662 15.059C13.7543 15.092 13.8425 15.103 13.9416 15.103C14.1289 15.103 14.2721 15.037 14.3933 14.916L15.2306 14.091C15.506 13.816 15.7704 13.607 16.0238 13.475C16.2771 13.321 16.5305 13.244 16.8059 13.244C17.0152 13.244 17.2356 13.288 17.4779 13.387C17.7203 13.486 17.9737 13.629 18.2491 13.816L21.8956 16.401C22.182 16.599 22.3803 16.83 22.5015 17.105C22.6116 17.38 22.6777 17.655 22.6777 17.963Z"
            fill="white" />
    </symbol>
    <symbol id="icon-logo" viewBox="0 0 147 86" fill="none" xmlns="http://www.w3.org/2000/svg">
        <path
            d="M144.663 23.7194C147.415 33.9887 142.078 45.5055 130.958 55.8505C119.856 66.1785 103.088 75.2354 83.2788 80.5432C63.47 85.8509 44.4195 86.3917 29.6413 82.9982C14.8386 79.5991 4.45796 72.2939 1.70632 62.0247C-1.04533 51.7554 4.29204 40.2386 15.412 29.8936C26.5135 19.5656 43.2821 10.5087 63.0909 5.20094C82.8997 -0.106814 101.95 -0.647582 116.728 2.74592C131.531 6.14504 141.912 13.4502 144.663 23.7194Z"
            fill="#EBE3FF" fill-opacity="0.19" stroke="#D9FF5A" />
        <path
            d="M37.2457 65.5269L38.1272 68.8168L36.5827 69.2307L34.2274 60.4407C34.6627 60.3241 35.1346 60.1932 35.643 60.048C36.1514 59.9028 36.5689 59.7864 36.8953 59.699C39.0217 59.1292 40.3271 59.7484 40.8116 61.5567C40.991 62.2264 40.9675 62.8249 40.7409 63.3521C40.5098 63.8627 40.1926 64.2527 39.7893 64.5223L43.5016 67.3767L41.6306 67.8781L38.3256 65.2375L37.2457 65.5269ZM37.2069 61.1632C37.1651 61.1744 37.0992 61.1965 37.0094 61.2296C36.9173 61.2543 36.7887 61.2932 36.6235 61.3465C36.4561 61.3913 36.3012 61.4328 36.1589 61.4709L36.8587 64.0828L37.8633 63.8136C38.3572 63.6813 38.7265 63.4522 38.9712 63.1265C39.2242 62.7985 39.2947 62.4252 39.1825 62.0066C38.9538 61.1527 38.2952 60.8716 37.2069 61.1632ZM47.927 64.4952L48.614 65.4013C48.1787 66.0203 47.5216 66.4476 46.6426 66.6832C45.7385 66.9254 44.9289 66.8508 44.2138 66.4591C43.5178 66.0714 43.0497 65.4297 42.8097 64.534C42.5854 63.6968 42.669 62.9207 43.0606 62.2057C43.4523 61.4906 44.1001 61.012 45.0042 60.7697C45.7493 60.5701 46.4475 60.6477 47.0988 61.0025C47.7502 61.3574 48.178 61.9157 48.3821 62.6775C48.4718 63.0123 48.512 63.2797 48.5028 63.4795L44.4218 64.5731C44.5903 64.9676 44.8566 65.2416 45.2208 65.3953C45.5933 65.5467 46.0098 65.5607 46.4702 65.4373C47.0981 65.2691 47.5837 64.955 47.927 64.4952ZM45.2644 61.992C44.444 62.2118 44.06 62.7544 44.1124 63.6196L46.8875 62.876C46.7995 62.5138 46.6038 62.2522 46.3004 62.0913C46.0032 61.9197 45.6579 61.8866 45.2644 61.992ZM56.4538 66.5979L55.0098 66.9849L54.2595 64.1846C53.9004 64.5859 53.4739 64.8527 52.98 64.9851C52.0843 65.2251 51.2968 65.149 50.6174 64.7568C49.9442 64.3539 49.4876 63.7047 49.2476 62.8089C49.0211 61.9634 49.1382 61.1783 49.599 60.4537C50.066 59.7185 50.7641 59.2264 51.6933 58.9774C52.6644 58.7172 53.5704 58.7167 54.4115 58.9758L56.4538 66.5979ZM52.8084 63.591C53.2939 63.4609 53.6498 63.1816 53.8759 62.7531L53.2232 60.3171C52.7971 60.2338 52.4041 60.2404 52.0441 60.3369C51.5251 60.476 51.1575 60.7449 50.9414 61.1438C50.723 61.5343 50.6789 61.9723 50.809 62.4579C50.9301 62.9099 51.1722 63.2443 51.5354 63.461C51.9069 63.6755 52.3312 63.7188 52.8084 63.591ZM59.5231 57.0274L60.9672 56.6405L62.4813 62.2912L61.0372 62.6781L60.8522 61.9875C60.5481 62.6611 60.0194 63.0989 59.266 63.3007C58.6633 63.4622 58.1281 63.3903 57.6604 63.0849C57.1928 62.7796 56.8581 62.2502 56.6562 61.4967L55.7309 58.0435L57.175 57.6566L58.0195 60.8084C58.2505 61.6707 58.726 62.0054 59.4459 61.8124C59.9399 61.6801 60.3009 61.3366 60.5292 60.782L59.5231 57.0274ZM68.0992 59.0901L68.7861 59.9961C68.3509 60.6152 67.6937 61.0425 66.8148 61.2781C65.9106 61.5203 65.1011 61.4456 64.386 61.054C63.6899 60.6663 63.2219 60.0246 62.9819 59.1288C62.7576 58.2917 62.8412 57.5156 63.2328 56.8006C63.6244 56.0855 64.2723 55.6068 65.1764 55.3646C65.9215 55.165 66.6197 55.2426 67.271 55.5974C67.9224 55.9522 68.3501 56.5105 68.5543 57.2723C68.644 57.6072 68.6842 57.8746 68.675 58.0744L64.5939 59.1679C64.7625 59.5624 65.0288 59.8365 65.393 59.9901C65.7655 60.1416 66.182 60.1556 66.6424 60.0322C67.2703 59.864 67.7559 59.5499 68.0992 59.0901ZM65.4366 56.5869C64.6162 56.8067 64.2322 57.3492 64.2846 58.2145L67.0597 57.4709C66.9717 57.1087 66.776 56.8471 66.4726 56.6861C66.1754 56.5145 65.8301 56.4815 65.4366 56.5869ZM69.2868 56.1071C69.1454 55.5797 69.2258 55.1095 69.5279 54.6966C69.83 54.2837 70.2866 53.9953 70.8977 53.8316C71.8186 53.5848 72.5982 53.6316 73.2367 53.972L72.9727 55.1463C72.4158 54.9097 71.8569 54.8666 71.2961 55.0169C71.0951 55.0707 70.9412 55.1658 70.8342 55.3021C70.7249 55.4301 70.6882 55.5611 70.7241 55.695C70.7981 55.9713 71.2156 56.1061 71.9765 56.0996C72.2517 56.0887 72.4999 56.094 72.721 56.1155C72.9398 56.1286 73.1718 56.1741 73.417 56.252C73.6683 56.3193 73.8806 56.4418 74.0539 56.6197C74.2271 56.7976 74.3508 57.0246 74.4248 57.3009C74.5729 57.8534 74.4813 58.349 74.1503 58.7876C73.8275 59.224 73.3188 59.5353 72.6239 59.7215C72.13 59.8538 71.6206 59.8782 71.0958 59.7945C70.5603 59.7047 70.1964 59.5689 70.0041 59.3871L70.455 58.2569C70.6656 58.4069 70.9731 58.4995 71.3773 58.5347C71.7922 58.5761 72.1335 58.5609 72.4014 58.4891C72.7369 58.4351 72.939 58.2688 73.0079 57.9901C73.0746 57.7031 72.9317 57.5215 72.5794 57.4455C72.4358 57.4121 72.22 57.3937 71.932 57.3901C71.6523 57.3843 71.3893 57.374 71.1431 57.3593C70.903 57.3339 70.649 57.2898 70.3809 57.227C70.1212 57.162 69.8953 57.0386 69.703 56.8569C69.5085 56.6667 69.3697 56.4168 69.2868 56.1071ZM75.4439 56.5164L74.0846 51.4434L75.5286 51.0564L75.9492 52.6261L77.77 52.1382L78.1333 53.4944L76.3126 53.9822L76.8644 56.0416C77.0461 56.7197 77.3629 56.9981 77.815 56.877C78.0996 56.8008 78.3593 56.6145 78.594 56.3184L79.3329 57.3182C78.9712 57.8099 78.4638 58.1432 77.8109 58.3182C77.1997 58.4819 76.7025 58.4178 76.3192 58.1257C75.942 57.823 75.6502 57.2866 75.4439 56.5164ZM84.1934 56.4734L84.0804 56.5037L81.7251 47.7138L81.8632 47.6768C82.2232 47.5803 82.5569 47.4864 82.8644 47.395C83.4794 47.2123 83.8455 47.1052 83.9627 47.0738C84.8082 46.8473 85.5847 46.7648 86.2921 46.8265C87.0056 46.8776 87.6099 47.0566 88.1049 47.3636C88.5976 47.6623 89.0045 48.0423 89.3255 48.5036C89.6526 48.9543 89.8947 49.4726 90.0517 50.0586C90.4061 51.3813 90.2582 52.5873 89.608 53.6767C88.9662 54.7639 87.8416 55.5228 86.2343 55.9535C85.8744 56.0499 85.5426 56.1343 85.239 56.2067C84.9354 56.2791 84.5868 56.368 84.1934 56.4734ZM84.1126 47.7335C83.9284 47.7829 83.6586 47.8641 83.3031 47.9773C82.9537 48.0799 82.7163 48.148 82.5907 48.1817L84.596 55.6657C84.8723 55.5917 85.1329 55.5263 85.3779 55.4696C85.6207 55.4046 85.7976 55.3617 85.9087 55.3409C86.0175 55.3117 86.0761 55.296 86.0845 55.2938C87.449 54.9281 88.4074 54.2855 88.9595 53.366C89.5094 52.438 89.6307 51.4006 89.3234 50.2537C89.034 49.1738 88.4427 48.3902 87.5495 47.9028C86.6478 47.4176 85.5022 47.3612 84.1126 47.7335ZM97.0262 51.7563L97.3743 52.2014C97.0072 52.874 96.3842 53.328 95.5052 53.5636C94.6011 53.8058 93.8052 53.732 93.1175 53.342C92.4214 52.9543 91.9545 52.3167 91.7167 51.4294C91.4879 50.5755 91.5506 49.805 91.9049 49.1179C92.2675 48.4286 92.8966 47.9639 93.7924 47.7239C94.5207 47.5287 95.1946 47.5994 95.8141 47.9358C96.423 48.2662 96.8307 48.8164 97.037 49.5866C97.0909 49.7875 97.1254 49.9666 97.1407 50.1241L92.482 51.3723C92.6888 52.0437 93.0542 52.52 93.5782 52.8013C94.1 53.0742 94.6999 53.1199 95.378 52.9382C96.1649 52.7273 96.7143 52.3334 97.0262 51.7563ZM93.8945 48.356C93.2917 48.5175 92.8491 48.8245 92.5666 49.2771C92.2925 49.7273 92.2035 50.2492 92.2997 50.8425L96.3682 49.7523C96.2005 49.1602 95.8949 48.7396 95.4514 48.4906C95.0078 48.2416 94.4888 48.1967 93.8945 48.356ZM101.989 50.1169C101.92 49.8574 101.755 49.6772 101.495 49.5765C101.243 49.4735 100.95 49.4175 100.615 49.4084C100.289 49.3971 99.9567 49.3785 99.6178 49.3526C99.2767 49.3184 98.9647 49.2091 98.682 49.0247C98.4055 48.8296 98.2167 48.5437 98.1158 48.167C97.9946 47.7149 98.0656 47.3101 98.3287 46.9525C98.5895 46.5865 98.992 46.3306 99.5361 46.1848C100.315 45.9762 100.961 46.0274 101.475 46.3383L101.33 46.902C100.848 46.6452 100.306 46.5976 99.7035 46.7591C99.3686 46.8488 99.1159 47.0107 98.9454 47.2449C98.7809 47.4684 98.7335 47.7099 98.803 47.9694C98.8748 48.2373 99.0389 48.4311 99.2953 48.5508C99.5578 48.6599 99.8532 48.7243 100.181 48.744C100.516 48.7531 100.853 48.7706 101.191 48.7964C101.53 48.8222 101.836 48.9243 102.108 49.1026C102.388 49.2787 102.577 49.5467 102.673 49.9067C102.81 50.4173 102.724 50.8666 102.415 51.2544C102.115 51.64 101.667 51.9124 101.073 52.0716C100.705 52.1703 100.297 52.1898 99.8506 52.13C99.4313 52.0719 99.1213 51.9531 98.9206 51.7736L99.1704 51.2491C99.381 51.399 99.6623 51.4941 100.014 51.5344C100.374 51.5725 100.701 51.5523 100.994 51.4738C101.362 51.3751 101.64 51.2065 101.827 50.9679C102.021 50.7186 102.075 50.435 101.989 50.1169ZM105.676 50.7172L105.023 50.8921L103.509 45.2415L104.162 45.0665L105.676 50.7172ZM102.807 43.0743C102.773 42.9487 102.793 42.8359 102.864 42.7359C102.936 42.6359 103.035 42.569 103.161 42.5354C103.27 42.5062 103.377 42.5223 103.483 42.5836C103.595 42.6342 103.667 42.7182 103.699 42.8354C103.737 42.9777 103.725 43.1019 103.664 43.2081C103.611 43.312 103.522 43.3807 103.396 43.4144C103.262 43.4503 103.138 43.4387 103.024 43.3797C102.917 43.3184 102.845 43.2166 102.807 43.0743ZM107.389 51.1464C107.275 50.7195 107.329 50.3191 107.552 49.9454C107.775 49.5716 108.147 49.2521 108.668 48.9869C108.502 48.8698 108.391 48.7067 108.335 48.4974C108.279 48.2881 108.299 48.0807 108.397 47.8751C107.986 47.8148 107.633 47.6536 107.339 47.3915C107.044 47.1295 106.843 46.7976 106.735 46.3958C106.581 45.8181 106.658 45.286 106.967 44.7994C107.276 44.3128 107.766 43.9797 108.435 43.8003C108.971 43.6567 109.482 43.6723 109.969 43.847L109.981 43.8436L111.474 42.986L111.639 43.6013L110.574 44.1963C110.892 44.479 111.102 44.8129 111.206 45.1979C111.356 45.7588 111.274 46.2921 110.961 46.7977C110.644 47.2865 110.158 47.6185 109.505 47.7934C109.271 47.8562 109.078 47.8899 108.927 47.8946C108.881 48.0236 108.88 48.1718 108.925 48.3393C108.976 48.5318 109.071 48.6679 109.209 48.7476C109.523 48.6456 109.696 48.5901 109.73 48.5811C110.592 48.3501 111.321 48.3252 111.917 48.5065C112.513 48.6878 112.887 49.0631 113.04 49.6323C113.19 50.1932 113.051 50.6969 112.624 51.1435C112.198 51.5984 111.554 51.9414 110.692 52.1725C109.822 52.4057 109.089 52.4359 108.496 52.263C107.911 52.0879 107.542 51.7157 107.389 51.1464ZM108.055 50.9681C108.153 51.3364 108.423 51.5736 108.864 51.6797C109.316 51.792 109.873 51.7595 110.534 51.5823C111.187 51.4073 111.681 51.1583 112.016 50.8352C112.351 50.5121 112.471 50.1706 112.374 49.8106C112.276 49.4423 112 49.202 111.549 49.0898C111.103 48.9669 110.549 48.9941 109.888 49.1713C109.235 49.3463 108.741 49.5953 108.406 49.9184C108.071 50.2415 107.954 50.5914 108.055 50.9681ZM107.571 45.0951C107.35 45.4415 107.293 45.8156 107.401 46.2174C107.508 46.6193 107.745 46.9149 108.109 47.1042C108.474 47.2936 108.887 47.3266 109.347 47.2032C109.808 47.0799 110.149 46.845 110.37 46.4986C110.591 46.1522 110.648 45.7781 110.54 45.3763C110.432 44.9744 110.192 44.68 109.819 44.4928C109.454 44.3035 109.046 44.2693 108.594 44.3905C108.15 44.5093 107.809 44.7442 107.571 45.0951ZM114.792 48.2745L114.139 48.4495L112.625 42.7988L113.278 42.6238L113.49 43.4149C113.655 43.0926 113.899 42.7984 114.223 42.5323C114.554 42.2639 114.909 42.0793 115.285 41.9783C116.072 41.7675 116.717 41.8144 117.221 42.1192C117.724 42.424 118.091 43.0075 118.322 43.8697L119.187 47.0969L118.534 47.2718L117.703 44.1703C117.34 42.8141 116.538 42.302 115.3 42.634C114.94 42.7304 114.61 42.9084 114.312 43.1678C114.011 43.4188 113.79 43.6979 113.648 44.0051L114.792 48.2745Z"
            fill="white" />
        <rect x="59" y="37" width="18" height="18" rx="2" transform="rotate(-60 59 37)" fill="white" />
        <circle cx="70.5732" cy="33.9497" r="7" transform="rotate(-15 70.5732 33.9497)" fill="#BAA5EC" />
        <rect x="66" y="31" width="9" height="9" rx="2" transform="rotate(-15 66 31)" fill="white" />
        <circle cx="70.6742" cy="34.1213" r="3" transform="rotate(-15 70.6742 34.1213)" fill="#BAA5EC" />
        <rect width="2" height="2" rx="1" transform="matrix(0.5 -0.866025 0.865989 0.500063 70 34)" fill="white" />
    </symbol>
</svg>